<svg width="52" height="16" viewBox="0 0 52 16" fill="none" xmlns="http://www.w3.org/2000/svg">
<path d="M0.990767 14H4.15483V8.73935H9.35795V6.16335H4.15483V3.47869H9.92685V0.909091H0.990767V14ZM11.5201 14H20.1301V11.4304H14.6841V0.909091H11.5201V14ZM24.9322 0.909091H21.7681V14H24.9322V0.909091ZM39.2743 7.45455C39.2743 3.12713 36.5385 0.730113 33.0229 0.730113C29.4945 0.730113 26.7779 3.12713 26.7779 7.45455C26.7779 11.7628 29.4945 14.179 33.0229 14.179C33.8347 14.179 34.6017 14.0511 35.3049 13.8018L36.3212 15.0227H39.1848L37.2544 12.6449C38.5009 11.5007 39.2743 9.74929 39.2743 7.45455ZM31.9235 9.29545L33.4959 11.3729C33.3425 11.392 33.1827 11.4048 33.0229 11.4048C31.1373 11.4048 30.0059 10.0178 30.0059 7.45455C30.0059 4.89134 31.1373 3.50426 33.0229 3.50426C34.915 3.50426 36.04 4.89134 36.04 7.45455C36.04 8.6946 35.7779 9.6598 35.2857 10.3246L34.4803 9.29545H31.9235ZM48.2152 4.83381H51.245C51.2195 2.38565 49.2699 0.730113 46.2273 0.730113C43.2358 0.730113 41.0817 2.36009 41.1009 4.79545C41.0945 6.78338 42.4879 7.90199 44.7507 8.41974L46.1186 8.73935C47.5568 9.07173 48.2024 9.46165 48.2152 10.1967C48.2024 10.9957 47.4545 11.5518 46.1825 11.5518C44.7827 11.5518 43.8622 10.8999 43.7919 9.64062H40.7621C40.8004 12.7024 42.929 14.1662 46.2209 14.1662C49.4808 14.1662 51.4112 12.6896 51.424 10.2031C51.4112 8.11293 49.9986 6.83452 47.4162 6.26562L46.2912 6.00994C45.1023 5.75426 44.348 5.35795 44.3736 4.57812C44.38 3.86222 44.9936 3.34446 46.2209 3.34446C47.4545 3.34446 48.1321 3.90057 48.2152 4.83381Z" fill="#FAFAFA"/>
</svg>
